<svg width="36" height="36" viewBox="0 0 36 36" fill="none" xmlns="http://www.w3.org/2000/svg">
<path d="M17.3867 9.0534C17.7386 9.40529 17.7782 9.96238 17.4796 10.3605L14 15C13.588 15.5494 13.98 16.3333 14.6667 16.3333V16.3333H27C27.5523 16.3333 28 16.781 28 17.3333L28 18.6667C28 19.219 27.5523 19.6667 27 19.6667H14.6667V19.6667C13.98 19.6667 13.588 20.4506 14 21L17.4796 25.6395C17.7782 26.0376 17.7386 26.5947 17.3867 26.9466L17.11 27.2233C16.6933 27.64 16.0086 27.6079 15.6327 27.1541L8.53157 18.5803C8.22364 18.2085 8.22527 17.6698 8.53544 17.2999L15.6319 8.83654C16.0089 8.38688 16.6903 8.357 17.1053 8.77195L17.3867 9.0534Z" fill="white"/>
</svg>
