<svg width="36" height="36" viewBox="0 0 36 36" fill="none" xmlns="http://www.w3.org/2000/svg">
<path d="M17.4097 10.743C17.7484 11.0817 17.7865 11.618 17.4991 12.0012L14.8 15.6C14.4704 16.0395 14.784 16.6667 15.3333 16.6667V16.6667H25C25.5523 16.6667 26 17.1144 26 17.6667V18.3333C26 18.8856 25.5523 19.3333 25 19.3333H15.3333V19.3333C14.784 19.3333 14.4704 19.9605 14.8 20.4L17.5008 24.0011C17.7872 24.383 17.7493 24.9174 17.4117 25.255V25.255C17.012 25.6547 16.3551 25.6239 15.9946 25.1885L10.5316 18.5926C10.2236 18.2208 10.2253 17.6821 10.5354 17.3122L15.9915 10.8052C16.3544 10.3724 17.0103 10.3436 17.4097 10.743V10.743Z" fill="white"/>
</svg>
