<svg width="240" height="354" viewBox="0 0 240 354" fill="none" xmlns="http://www.w3.org/2000/svg">
<g clip-path="url(#clip0_210_2301)">
<rect width="240" height="354" fill="#B70000"/>
<path d="M229.164 52.222H156.248V30H229.164V52.222ZM247.143 163.332C242.539 177.743 226.008 196.665 194.008 196.665C161.988 196.665 136.051 177.454 136.051 133.61C136.051 90.166 160.269 67.8329 192.988 67.8329C225.091 67.8329 244.695 87.6327 248.976 117.01C249.789 122.632 250.112 130.21 249.966 140.788H166.352C167.707 176.465 202.633 177.587 214.144 163.332H247.143ZM167.082 118.888H218.8C217.706 101.699 206.967 94.2326 192.998 94.2326C177.727 94.2326 169.279 102.766 167.082 118.888ZM67.3534 196.532H0V30.2333H72.4263C129.467 31.1333 130.551 90.7216 100.759 106.966C136.811 120.966 138.019 196.532 67.3534 196.532ZM31.2497 96.6659H68.5826C94.7073 96.6659 98.8531 63.333 65.3326 63.333H31.2497V96.6659ZM66.5722 129.999H31.2497V163.51H66.0514C97.8739 163.51 95.926 129.999 66.5722 129.999Z" fill="white"/>
<path d="M0.0195679 262.39L0.0170688 260.698L13.4271 260.678L13.4296 262.37L0.0195679 262.39ZM23.242 267.359C22.732 267.36 22.2069 267.31 21.6668 267.209C21.1266 267.113 20.6255 266.997 20.1633 266.86C19.7011 266.716 19.3349 266.579 19.0647 266.447L19.331 263.999C19.7513 264.202 20.1896 264.391 20.6459 264.564C21.1021 264.737 21.5703 264.878 22.0505 264.985C22.5307 265.092 23.0167 265.146 23.5087 265.145C24.1207 265.144 24.6126 265.023 24.9842 264.783C25.3559 264.542 25.5413 264.176 25.5406 263.684C25.54 263.306 25.4346 263.003 25.2242 262.775C25.0139 262.542 24.6926 262.335 24.2603 262.156C23.8281 261.97 23.2757 261.761 22.6034 261.528C21.9311 261.295 21.3277 261.032 20.7932 260.739C20.2588 260.44 19.8352 260.062 19.5226 259.607C19.2099 259.151 19.053 258.569 19.052 257.861C19.051 257.165 19.221 256.547 19.5622 256.007C19.9034 255.46 20.4128 255.033 21.0904 254.726C21.7739 254.413 22.6227 254.256 23.6367 254.255C24.4047 254.253 25.1368 254.339 25.833 254.512C26.5293 254.679 27.1236 254.861 27.6158 255.059L27.3853 257.417C26.6769 257.1 26.0105 256.861 25.3863 256.7C24.768 256.533 24.1379 256.45 23.4959 256.451C22.8239 256.452 22.3051 256.564 21.9394 256.786C21.5737 257.009 21.3912 257.342 21.3919 257.786C21.3924 258.14 21.4948 258.425 21.6991 258.64C21.9035 258.856 22.1947 259.042 22.573 259.197C22.9512 259.347 23.4044 259.505 23.9327 259.672C24.8451 259.959 25.6106 260.276 26.2291 260.623C26.8536 260.964 27.3222 261.38 27.6349 261.872C27.9536 262.357 28.1135 262.96 28.1146 263.68C28.1151 264.04 28.0587 264.433 27.9453 264.859C27.8319 265.279 27.6075 265.679 27.2721 266.057C26.9367 266.436 26.4451 266.748 25.7975 266.995C25.1558 267.236 24.304 267.358 23.242 267.359ZM30.389 267.097L30.3704 254.497L38.4344 254.485L38.4377 256.717L32.7317 256.725L32.7357 259.407L37.1637 259.401L37.167 261.633L32.739 261.639L32.7437 264.861L38.6297 264.852L38.633 267.084L30.389 267.097ZM40.9795 267.081L40.9609 254.481L49.0249 254.469L49.0282 256.701L43.3222 256.71L43.3261 259.392L47.7541 259.385L47.7574 261.617L43.3294 261.624L43.3342 264.846L49.2202 264.837L49.2235 267.069L40.9795 267.081ZM55.9729 267.059L55.9543 254.459L63.7123 254.447L63.7156 256.679L58.2616 256.687L58.2656 259.369L62.4776 259.363L62.4809 261.595L58.2689 261.601L58.2769 267.055L55.9729 267.059ZM70.8663 267.289C69.6843 267.291 68.706 267.058 67.9313 266.591C67.1626 266.124 66.5886 265.468 66.2094 264.623C65.8301 263.777 65.6396 262.785 65.638 261.645L65.6273 254.445L67.9313 254.441L67.9411 261.047C67.942 261.647 67.9818 262.196 68.0605 262.694C68.1392 263.186 68.2809 263.612 68.4854 263.971C68.6959 264.325 68.9933 264.598 69.3776 264.789C69.7619 264.981 70.257 265.076 70.863 265.075C71.469 265.074 71.9639 264.977 72.3476 264.785C72.7313 264.592 73.0249 264.319 73.2284 263.964C73.4379 263.604 73.5812 263.178 73.6585 262.686C73.7358 262.188 73.774 261.639 73.7731 261.039L73.7633 254.433L76.0673 254.429L76.0779 261.629C76.0796 262.769 75.8921 263.762 75.5153 264.609C75.1386 265.456 74.5636 266.113 73.7903 266.583C73.023 267.052 72.0483 267.287 70.8663 267.289ZM79.0698 267.025L79.0512 254.425L81.3552 254.421L81.3708 264.969L86.5548 264.962L86.5578 267.014L79.0698 267.025ZM88.4298 267.011L88.4112 254.411L90.7152 254.408L90.7308 264.956L95.9148 264.948L95.9178 267L88.4298 267.011Z" fill="white"/>
<path d="M73.5994 291.541C72.3214 291.543 71.196 291.275 70.2232 290.736C69.2504 290.191 68.4903 289.431 67.9429 288.453C67.4014 287.47 67.1297 286.319 67.1277 284.999C67.1258 283.679 67.4031 282.529 67.9597 281.55C68.5222 280.566 69.2951 279.802 70.2783 279.261C71.2615 278.714 72.3861 278.439 73.6521 278.437C74.3181 278.436 74.9272 278.507 75.4794 278.65C76.0316 278.787 76.5088 278.961 76.9112 279.17L76.6624 281.367C76.2061 281.157 75.7348 280.987 75.2486 280.856C74.7684 280.718 74.2313 280.65 73.6373 280.651C72.7553 280.652 72.0176 280.839 71.4242 281.212C70.8367 281.585 70.3935 282.099 70.0944 282.753C69.7954 283.408 69.6465 284.155 69.6477 284.995C69.649 285.835 69.7971 286.582 70.0921 287.235C70.387 287.889 70.8258 288.401 71.4083 288.772C71.9969 289.143 72.7262 289.328 73.5962 289.327C74.2021 289.326 74.7451 289.259 75.2249 289.127C75.7047 288.994 76.1874 288.819 76.6731 288.603L76.9283 290.798C76.4547 291.021 75.9329 291.199 75.3631 291.331C74.7993 291.47 74.2114 291.54 73.5994 291.541ZM86.0934 288.283L80.8194 288.29L80.8164 286.274L86.0904 286.267L86.0934 288.283ZM83.1485 280.925L83.7425 280.924L80.1218 291.279L77.8898 291.283L82.3532 278.676L84.5312 278.673L89.0318 291.266L86.7998 291.27L83.1485 280.925ZM94.4861 291.51C93.9761 291.511 93.4511 291.461 92.9109 291.36C92.3708 291.264 91.8696 291.148 91.4074 291.011C90.9452 290.867 90.579 290.73 90.3088 290.598L90.5752 288.15C90.9955 288.353 91.4338 288.542 91.89 288.715C92.3463 288.888 92.8145 289.029 93.2946 289.136C93.7748 289.243 94.2609 289.297 94.7529 289.296C95.3649 289.295 95.8567 289.174 96.2283 288.934C96.6 288.693 96.7854 288.327 96.7847 287.835C96.7842 287.457 96.6787 287.154 96.4684 286.926C96.258 286.693 95.9367 286.486 95.5045 286.307C95.0722 286.121 94.5199 285.912 93.8475 285.679C93.1752 285.446 92.5718 285.183 92.0374 284.89C91.5029 284.591 91.0794 284.213 90.7667 283.758C90.454 283.302 90.2972 282.72 90.2961 282.012C90.2951 281.316 90.4652 280.698 90.8064 280.158C91.1476 279.611 91.6569 279.184 92.3345 278.877C93.018 278.564 93.8668 278.407 94.8808 278.406C95.6488 278.404 96.3809 278.49 97.0772 278.663C97.7734 278.83 98.3677 279.012 98.86 279.21L98.6295 281.568C97.921 281.251 97.2546 281.012 96.6304 280.851C96.0122 280.684 95.382 280.601 94.74 280.602C94.068 280.603 93.5492 280.715 93.1835 280.937C92.8179 281.16 92.6353 281.493 92.636 281.937C92.6365 282.291 92.7389 282.576 92.9433 282.791C93.1476 283.007 93.4389 283.193 93.8171 283.348C94.1953 283.498 94.6485 283.656 95.1768 283.823C96.0892 284.11 96.8547 284.427 97.4732 284.774C98.0977 285.115 98.5663 285.531 98.879 286.023C99.1978 286.508 99.3577 287.111 99.3587 287.831C99.3592 288.191 99.3028 288.584 99.1895 289.01C99.0761 289.43 98.8517 289.83 98.5162 290.208C98.1808 290.587 97.6892 290.899 97.0416 291.146C96.4 291.387 95.5481 291.509 94.4861 291.51ZM101.633 291.248L101.615 278.648L109.679 278.636L109.682 280.868L103.976 280.876L103.98 283.558L108.408 283.552L108.411 285.784L103.983 285.79L103.988 289.012L109.874 289.003L109.877 291.235L101.633 291.248ZM120.281 291.472C119.771 291.473 119.246 291.423 118.706 291.321C118.166 291.226 117.664 291.11 117.202 290.973C116.74 290.829 116.374 290.692 116.104 290.56L116.37 288.112C116.79 288.315 117.229 288.504 117.685 288.677C118.141 288.85 118.609 288.991 119.089 289.098C119.57 289.205 120.056 289.258 120.548 289.258C121.16 289.257 121.652 289.136 122.023 288.896C122.395 288.655 122.58 288.289 122.58 287.797C122.579 287.419 122.474 287.116 122.263 286.888C122.053 286.654 121.732 286.448 121.299 286.269C120.867 286.083 120.315 285.874 119.642 285.641C118.97 285.408 118.367 285.145 117.832 284.852C117.298 284.553 116.874 284.175 116.562 283.72C116.249 283.264 116.092 282.682 116.091 281.974C116.09 281.278 116.26 280.66 116.601 280.12C116.942 279.573 117.452 279.146 118.129 278.839C118.813 278.526 119.662 278.369 120.676 278.368C121.444 278.366 122.176 278.452 122.872 278.625C123.568 278.792 124.163 278.974 124.655 279.172L124.424 281.53C123.716 281.213 123.049 280.974 122.425 280.813C121.807 280.646 121.177 280.563 120.535 280.564C119.863 280.565 119.344 280.676 118.978 280.899C118.613 281.122 118.43 281.455 118.431 281.899C118.431 282.253 118.534 282.538 118.738 282.753C118.942 282.969 119.234 283.155 119.612 283.31C119.99 283.46 120.443 283.618 120.972 283.785C121.884 284.072 122.65 284.389 123.268 284.736C123.893 285.077 124.361 285.493 124.674 285.985C124.993 286.47 125.152 287.073 125.154 287.793C125.154 288.153 125.098 288.546 124.984 288.972C124.871 289.392 124.646 289.792 124.311 290.17C123.976 290.549 123.484 290.861 122.836 291.108C122.195 291.349 121.343 291.471 120.281 291.472ZM129.876 291.206L129.861 280.838L126.297 280.843L126.293 278.611L135.725 278.597L135.729 280.829L132.165 280.835L132.18 291.203L129.876 291.206ZM142.831 291.439C141.649 291.441 140.671 291.208 139.896 290.741C139.127 290.274 138.553 289.618 138.174 288.773C137.795 287.927 137.604 286.935 137.603 285.795L137.592 278.595L139.896 278.591L139.906 285.197C139.907 285.797 139.947 286.346 140.025 286.844C140.104 287.336 140.246 287.762 140.45 288.121C140.661 288.475 140.958 288.748 141.342 288.939C141.727 289.13 142.222 289.226 142.828 289.225C143.434 289.224 143.929 289.127 144.312 288.935C144.696 288.742 144.99 288.469 145.193 288.114C145.403 287.754 145.546 287.328 145.623 286.836C145.701 286.338 145.739 285.789 145.738 285.189L145.728 278.583L148.032 278.579L148.043 285.779C148.044 286.919 147.857 287.912 147.48 288.759C147.103 289.605 146.528 290.263 145.755 290.732C144.988 291.202 144.013 291.437 142.831 291.439ZM151.035 291.175L151.016 278.575L155.732 278.568C156.932 278.566 158 278.816 158.937 279.319C159.874 279.816 160.61 280.535 161.145 281.476C161.681 282.411 161.949 283.539 161.951 284.859C161.953 286.179 161.688 287.31 161.155 288.253C160.623 289.19 159.889 289.911 158.954 290.416C158.018 290.915 156.951 291.166 155.751 291.168L151.035 291.175ZM153.336 289.119L155.748 289.116C156.564 289.115 157.244 288.943 157.79 288.6C158.335 288.257 158.746 287.767 159.021 287.131C159.296 286.494 159.433 285.738 159.431 284.862C159.43 283.986 159.291 283.23 159.014 282.595C158.737 281.959 158.325 281.471 157.779 281.13C157.232 280.789 156.551 280.619 155.735 280.62L153.323 280.623L153.336 289.119ZM166.72 291.152L166.713 286.058L162.274 278.558L164.794 278.554L168.403 284.939L167.323 284.941L170.914 278.545L173.434 278.542L169.017 286.054L169.024 291.148L166.72 291.152Z" fill="white"/>
<path d="M114.861 315.736C113.661 315.738 112.593 315.47 111.656 314.931C110.719 314.386 109.983 313.626 109.448 312.648C108.912 311.665 108.644 310.514 108.642 309.194C108.64 307.874 108.905 306.724 109.438 305.745C109.97 304.761 110.704 303.997 111.639 303.456C112.574 302.909 113.642 302.634 114.842 302.632C116.042 302.631 117.11 302.902 118.047 303.447C118.984 303.985 119.72 304.746 120.256 305.729C120.791 306.707 121.06 307.855 121.062 309.175C121.064 310.495 120.798 311.648 120.266 312.632C119.733 313.611 118.999 314.374 118.064 314.922C117.129 315.463 116.061 315.735 114.861 315.736ZM114.858 313.504C115.698 313.503 116.4 313.316 116.963 312.943C117.527 312.57 117.949 312.06 118.23 311.411C118.511 310.757 118.651 310.013 118.65 309.179C118.649 308.345 118.506 307.604 118.223 306.956C117.941 306.303 117.517 305.79 116.952 305.419C116.388 305.048 115.685 304.863 114.845 304.864C114.005 304.866 113.304 305.053 112.74 305.425C112.177 305.798 111.755 306.312 111.473 306.966C111.192 307.615 111.053 308.356 111.054 309.19C111.055 310.024 111.197 310.768 111.48 311.421C111.763 312.069 112.187 312.578 112.751 312.949C113.316 313.321 114.018 313.506 114.858 313.504ZM123.443 315.472L123.424 302.872L125.692 302.868L131.086 310.996L131.074 302.86L133.378 302.857L133.397 315.457L131.507 315.46L125.734 306.828L125.747 315.468L123.443 315.472ZM140.932 315.446L140.914 302.846L145.666 302.839C146.884 302.837 147.787 303.097 148.376 303.618C148.971 304.133 149.269 304.886 149.27 305.876C149.271 306.614 149.104 307.232 148.769 307.73C148.44 308.223 147.942 308.583 147.277 308.812L147.276 308.38C148.284 308.595 149.038 308.99 149.537 309.565C150.036 310.14 150.286 310.902 150.287 311.85C150.289 312.984 149.924 313.867 149.193 314.498C148.462 315.123 147.46 315.436 146.188 315.438L140.932 315.446ZM143.233 313.39L145.843 313.387C146.473 313.386 146.974 313.256 147.346 312.997C147.723 312.739 147.912 312.274 147.911 311.602C147.91 310.918 147.711 310.453 147.315 310.207C146.918 309.962 146.426 309.84 145.838 309.841L143.228 309.844L143.233 313.39ZM143.225 307.792L145.331 307.789C145.889 307.789 146.306 307.674 146.582 307.445C146.863 307.217 147.004 306.851 147.003 306.347C147.002 305.825 146.861 305.453 146.578 305.231C146.302 305.004 145.885 304.891 145.327 304.891L143.221 304.894L143.225 307.792ZM152.56 315.429L152.541 302.829L160.605 302.817L160.609 305.049L154.903 305.057L154.907 307.739L159.335 307.733L159.338 309.965L154.91 309.971L154.915 313.193L160.801 313.184L160.804 315.416L152.56 315.429ZM163.15 315.413L163.132 302.813L165.436 302.81L165.443 307.796L171.203 307.787L171.196 302.801L173.5 302.798L173.518 315.398L171.214 315.401L171.206 309.947L165.446 309.956L165.454 315.41L163.15 315.413ZM183.53 312.395L178.256 312.403L178.253 310.387L183.527 310.379L183.53 312.395ZM180.586 305.037L181.18 305.036L177.559 315.392L175.327 315.395L179.79 302.788L181.968 302.785L186.469 315.379L184.237 315.382L180.586 305.037ZM188.269 315.376L188.25 302.776L190.518 302.773L195.912 310.901L195.9 302.765L198.204 302.761L198.223 315.361L196.333 315.364L190.56 306.733L190.573 315.373L188.269 315.376ZM207.062 315.6C205.784 315.602 204.658 315.334 203.685 314.795C202.713 314.251 201.953 313.49 201.405 312.513C200.864 311.529 200.592 310.378 200.59 309.058C200.588 307.738 200.865 306.588 201.422 305.609C201.984 304.625 202.757 303.862 203.741 303.32C204.724 302.773 205.848 302.498 207.114 302.496C207.78 302.495 208.389 302.566 208.942 302.709C209.494 302.847 209.971 303.02 210.373 303.229L210.125 305.426C209.668 305.216 209.197 305.046 208.711 304.915C208.231 304.777 207.694 304.709 207.1 304.71C206.218 304.711 205.48 304.898 204.886 305.271C204.299 305.644 203.856 306.158 203.557 306.812C203.258 307.467 203.109 308.214 203.11 309.054C203.111 309.894 203.259 310.641 203.554 311.294C203.849 311.948 204.288 312.46 204.871 312.831C205.459 313.203 206.188 313.387 207.058 313.386C207.664 313.385 208.207 313.318 208.687 313.186C209.167 313.053 209.65 312.878 210.135 312.662L210.391 314.857C209.917 315.08 209.395 315.258 208.825 315.391C208.262 315.529 207.674 315.599 207.062 315.6ZM212.684 315.34L212.665 302.74L220.729 302.728L220.733 304.96L215.027 304.968L215.031 307.65L219.459 307.644L219.462 309.876L215.034 309.882L215.039 313.104L220.925 313.096L220.928 315.328L212.684 315.34ZM226.284 310.568L226.282 308.876L239.692 308.856L239.694 310.548L226.284 310.568Z" fill="white"/>
</g>
<defs>
<clipPath id="clip0_210_2301">
<rect width="240" height="354" fill="white"/>
</clipPath>
</defs>
</svg>
