<svg width="16" height="16" viewBox="0 0 16 16" fill="none" xmlns="http://www.w3.org/2000/svg">
<path d="M0 1C0 0.447715 0.298477 0 0.666667 0H15.3333C15.7015 0 16 0.447715 16 1C16 1.55228 15.7015 2 15.3333 2H0.666667C0.298477 2 0 1.55228 0 1Z" fill="white"/>
<path d="M0 8C0 7.44772 0.298477 7 0.666667 7H15.3333C15.7015 7 16 7.44772 16 8C16 8.55228 15.7015 9 15.3333 9H0.666667C0.298477 9 0 8.55228 0 8Z" fill="white"/>
<path d="M0 15C0 14.4477 0.298477 14 0.666667 14H15.3333C15.7015 14 16 14.4477 16 15C16 15.5523 15.7015 16 15.3333 16H0.666667C0.298477 16 0 15.5523 0 15Z" fill="white"/>
</svg>
