<svg width="16" height="16" viewBox="0 0 16 16" fill="none" xmlns="http://www.w3.org/2000/svg">
<path d="M0.5 0.5C0.782138 0.217862 1.23393 0.200511 1.53688 0.460179L7.34921 5.44218C7.7237 5.76317 8.2763 5.76317 8.65079 5.44218L14.4631 0.460179C14.7661 0.200512 15.2179 0.217862 15.5 0.5V0.5C15.7821 0.782138 15.7995 1.23393 15.5398 1.53688L10.5578 7.34921C10.2368 7.7237 10.2368 8.2763 10.5578 8.65079L15.5398 14.4631C15.7995 14.7661 15.7821 15.2179 15.5 15.5V15.5C15.2179 15.7821 14.7661 15.7995 14.4631 15.5398L8.65079 10.5578C8.2763 10.2368 7.7237 10.2368 7.34921 10.5578L1.53688 15.5398C1.23393 15.7995 0.782138 15.7821 0.5 15.5V15.5C0.217862 15.2179 0.200511 14.7661 0.460179 14.4631L5.44218 8.65079C5.76317 8.2763 5.76317 7.7237 5.44218 7.34921L0.460179 1.53688C0.200512 1.23393 0.217862 0.782138 0.5 0.5V0.5Z" fill="white"/>
</svg>
